<svg width="676" height="676" viewBox="0 0 676 676" fill="none" xmlns="http://www.w3.org/2000/svg">
<g id="login-person">
<g clip-path="url(#clip0)">
<path id="bg" d="M676 338C676.06 383.755 666.799 429.042 648.78 471.1L647.66 473.68C617.181 543.019 564.33 600.135 497.56 635.894C430.79 671.653 353.958 683.989 279.35 670.93C277.32 670.57 275.293 670.197 273.27 669.81C252.363 665.757 231.891 659.72 212.13 651.78C208.92 650.49 205.733 649.153 202.57 647.77C200.41 646.83 198.25 645.86 196.11 644.86C137.569 617.728 88.0051 574.426 53.2593 520.058C18.5135 465.69 0.0343666 402.522 0 338C0 151.33 151.33 0 338 0C524.67 0 676 151.33 676 338Z" fill="#A52828"/>
<g id="flower">
<path id="Vector" opacity="0.2" d="M279.35 670.93C277.32 670.57 275.293 670.197 273.27 669.81C271.95 631.5 267.42 552.87 251.97 470.52C243.52 425.45 231.79 379.25 215.52 337.95C209.946 323.66 203.579 309.691 196.45 296.11C180.01 265.06 160.07 238.92 135.89 221.21L139.45 216.35C159.56 231.09 177.633 251.783 193.67 278.43C198.48 286.41 203.1 294.923 207.53 303.97C212.28 313.65 216.81 323.927 221.12 334.8C223.87 341.72 226.527 348.88 229.09 356.28C240.25 388.41 249.737 425.07 257.55 466.26C259.28 475.36 260.927 484.683 262.49 494.23C274.6 568.2 278.25 636.59 279.35 670.93Z" fill="black"/>
<path id="Vector_2" opacity="0.2" d="M202.57 647.77C200.41 646.83 198.25 645.86 196.11 644.86C194.02 622.16 190.18 594 183.16 567.27C180.085 555.265 176.138 543.5 171.35 532.07C163.34 513.32 152.97 497.38 139.56 487.55L143.12 482.7C157.16 492.98 167.99 509.23 176.36 528.24C185.79 549.66 192.08 574.59 196.27 598.41C199.38 616.1 201.34 633.19 202.57 647.77Z" fill="black"/>
<path id="Vector_3" opacity="0.2" d="M102.262 221.07C118.879 221.07 132.35 207.599 132.35 190.982C132.35 174.364 118.879 160.893 102.262 160.893C85.6443 160.893 72.1732 174.364 72.1732 190.982C72.1732 207.599 85.6443 221.07 102.262 221.07Z" fill="black"/>
<path id="Vector_4" opacity="0.2" d="M111.951 480.079C128.569 480.079 142.04 466.608 142.04 449.991C142.04 433.373 128.569 419.902 111.951 419.902C95.334 419.902 81.8629 433.373 81.8629 449.991C81.8629 466.608 95.334 480.079 111.951 480.079Z" fill="black"/>
<path id="Vector_5" opacity="0.2" d="M221.714 241.521C215.334 277.519 229.419 310.114 229.419 310.114C229.419 310.114 253.849 284.345 260.229 248.348C266.61 212.351 252.525 179.756 252.525 179.756C252.525 179.756 228.095 205.524 221.714 241.521Z" fill="black"/>
<path id="Vector_6" opacity="0.2" d="M121.718 326.971C156.053 339.526 190.554 331.469 190.554 331.469C190.554 331.469 169.388 303.056 135.053 290.501C100.718 277.946 66.2166 286.003 66.2166 286.003C66.2166 286.003 87.3827 314.416 121.718 326.971Z" fill="black"/>
<path id="Vector_7" opacity="0.2" d="M115.895 556.333C139.961 565.133 164.178 559.392 164.178 559.392C164.178 559.392 149.377 539.384 125.311 530.584C101.245 521.784 77.0277 527.524 77.0277 527.524C77.0277 527.524 91.8293 547.533 115.895 556.333Z" fill="black"/>
</g>
<g id="male">
<g id="male-person">
<path id="Vector_8" d="M337.786 412.849C410.561 412.849 469.556 353.853 469.556 281.079C469.556 208.304 410.561 149.309 337.786 149.309C265.011 149.309 206.016 208.304 206.016 281.079C206.016 353.853 265.011 412.849 337.786 412.849Z" fill="#FFEEEE"/>
<path id="Vector_9" d="M286.313 381.965C286.313 381.965 302.785 460.204 302.785 468.439C302.785 476.675 381.023 513.735 381.023 513.735L451.026 501.382L475.733 427.261C475.733 427.261 434.555 365.494 434.555 340.787L286.313 381.965Z" fill="#FFEEEE"/>
<path id="Vector_10" d="M649.26 471.1L648.14 473.68C617.661 543.019 564.81 600.135 498.04 635.894C431.27 671.653 354.438 683.989 279.83 670.93C277.8 670.57 275.773 670.197 273.75 669.81C252.843 665.757 232.371 659.72 212.61 651.78C209.4 650.49 206.213 649.153 203.05 647.77C200.89 646.83 198.73 645.86 196.59 644.86C177.193 635.874 158.693 625.065 141.34 612.58L125.72 567.27L134.5 560.57L152.56 546.78L171.83 532.07L176.84 528.24L252.45 470.52L258.03 466.26L297.33 436.26L297.34 436.25C297.34 436.25 339.84 505.5 401.61 484.91C463.38 464.32 462.03 405.28 462.03 405.28L649.26 471.1Z" fill="#521515"/>
<path id="Vector_11" d="M223.515 174.916C223.515 174.916 265.352 84.2702 345.539 105.188C425.725 126.107 471.048 157.484 474.535 188.862C478.021 220.239 472.791 267.305 472.791 267.305C472.791 267.305 464.075 202.807 408.293 216.753C352.511 230.698 265.352 220.239 265.352 220.239L251.406 345.749C251.406 345.749 235.718 323.087 218.286 337.033C200.854 350.978 167.733 202.807 223.515 174.916Z" fill="#521515"/>
<path id="Vector_12" d="M212.61 651.78C209.4 650.49 206.213 649.153 203.05 647.77C200.89 646.83 198.73 645.86 196.59 644.86C164.509 629.984 134.955 610.177 109 586.16C118.19 573.64 125.72 567.27 125.72 567.27H187.49L196.75 598.41L212.61 651.78Z" fill="#521515"/>
<path id="Vector_13" d="M595.15 464.32L648.14 473.68C633.959 505.985 614.807 535.87 591.38 562.25L595.15 464.32Z" fill="#521515"/>
</g>
</g>
<g id="female">
<g id="female-person">
<path id="Vector_14" d="M311.683 488.85C402.373 488.85 475.892 415.331 475.892 324.641C475.892 233.951 402.373 160.432 311.683 160.432C220.993 160.432 147.474 233.951 147.474 324.641C147.474 415.331 220.993 488.85 311.683 488.85Z" fill="#521515"/>
<path id="Vector_15" d="M325.2 482.157C380.122 482.157 424.645 437.634 424.645 382.713C424.645 327.791 380.122 283.268 325.2 283.268C270.279 283.268 225.756 327.791 225.756 382.713C225.756 437.634 270.279 482.157 325.2 482.157Z" fill="#FFEEEE"/>
<path id="Vector_16" d="M552.27 573.31L552.15 573.34L529.02 578.89L480.86 590.45L474.29 592.03L401.05 609.6L394.83 611.1L217.14 653.74C205.128 649.145 193.392 643.86 181.99 637.91C181.88 637.85 181.76 637.79 181.65 637.73C181 637.39 180.36 637.06 179.72 636.71C178.31 635.97 176.907 635.217 175.51 634.45C167.56 630.08 159.813 625.407 152.27 620.43C150.33 619.16 148.41 617.87 146.51 616.56C145.9 616.14 145.3 615.72 144.7 615.3C144.07 614.86 143.44 614.42 142.82 613.98C141.17 612.81 139.53 611.627 137.9 610.43C155.16 579.06 196.26 558.21 237.36 546.8C268.38 538.18 275.2 509.85 274.61 484.64C274.46 478.89 273.973 473.153 273.15 467.46C271.897 458.399 269.904 449.456 267.19 440.72L366.64 444.04L376.9 467.68C376.619 470.277 376.529 472.89 376.63 475.5C377.41 494.89 389.38 507.43 404.15 515.52C406.07 516.57 408.04 517.55 410.04 518.46C434.26 529.47 462.77 530.22 462.77 530.22C471.452 529.26 480.221 529.425 488.86 530.71C490.96 531.03 493 531.413 494.98 531.86C506.54 534.444 517.461 539.331 527.09 546.23C530.768 548.846 534.247 551.731 537.5 554.86C543.282 560.271 548.256 566.484 552.27 573.31Z" fill="#FFEEEE"/>
<path id="Vector_17" d="M567.19 586.42C566.77 586.81 566.35 587.19 565.93 587.58C557.121 595.63 547.891 603.207 538.28 610.28C531.83 615.05 525.21 619.58 518.42 623.87C516.93 624.82 515.43 625.753 513.92 626.67C511.3 628.27 508.657 629.833 505.99 631.36C502.51 633.36 498.987 635.297 495.42 637.17C493.98 637.94 492.53 638.68 491.08 639.42C488.96 640.51 486.83 641.56 484.68 642.59C484.31 642.77 483.94 642.95 483.57 643.12L479.34 639.61L529.02 578.89L539.01 566.68C539.01 566.68 543 566.68 552.15 573.34C557.207 577.104 561.986 581.228 566.45 585.68C566.69 585.93 566.94 586.17 567.19 586.42Z" fill="#FFEEEE"/>
<path id="Vector_18" d="M566.49 585.74C566.356 586.368 566.168 586.984 565.93 587.58C557.121 595.63 547.891 603.207 538.28 610.28C529.941 613.286 521.29 615.342 512.49 616.41C512.49 616.41 513.24 620.17 513.92 626.67C511.3 628.27 508.657 629.833 505.99 631.36C502.51 633.36 498.987 635.297 495.42 637.17C493.98 637.94 492.53 638.68 491.08 639.42C488.96 640.51 486.83 641.56 484.68 642.59C484.31 642.77 483.94 642.95 483.57 643.12C482.17 643.8 480.75 644.46 479.33 645.12C460.837 653.65 441.603 660.475 421.87 665.51C421.76 665.54 421.66 665.56 421.55 665.59C420.26 665.92 418.96 666.24 417.66 666.55C416.69 666.79 415.71 667.02 414.73 667.24C414.609 667.279 414.485 667.31 414.36 667.33C412.35 667.8 410.34 668.25 408.31 668.66C407.17 668.9 406.03 669.14 404.89 669.37C404.2 669.52 403.5 669.65 402.81 669.78C401.94 669.95 401.08 670.11 400.21 670.28C399.73 670.38 399.25 670.46 398.76 670.54C397.66 670.74 396.56 670.94 395.47 671.13C393.61 671.45 391.73 671.76 389.86 672.04C388.5 672.25 387.15 672.45 385.79 672.64C384.19 672.87 382.59 673.08 380.98 673.28C380.54 673.35 380.1 673.4 379.66 673.45C379.09 673.52 378.52 673.59 377.95 673.66C376.8 673.8 375.65 673.93 374.49 674.05C373.89 674.12 373.3 674.18 372.7 674.24C371.56 674.36 370.42 674.47 369.28 674.57C367.81 674.71 366.34 674.83 364.86 674.95C363.06 675.09 361.27 675.22 359.46 675.33C358.3 675.4 357.14 675.47 355.97 675.53C352.99 675.69 350.01 675.8 347.01 675.88C345.52 675.92 344.02 675.95 342.52 675.97H342.49C341 675.99 339.5 676 338 676C322.799 676.006 307.615 674.991 292.55 672.96C281.5 671.48 270.627 669.473 259.93 666.94C259.5 666.84 259.07 666.74 258.65 666.63C257.57 666.38 256.5 666.11 255.43 665.84C254.48 665.6 253.54 665.35 252.59 665.1C228.106 658.729 204.422 649.607 181.99 637.91C181.88 637.85 181.76 637.79 181.65 637.73C181 637.39 180.36 637.06 179.72 636.71C234.61 623.92 321.35 603.75 396.62 586.47C398.73 585.99 400.827 585.51 402.91 585.03C430.71 578.65 456.75 572.71 478.78 567.74C481.06 567.23 483.293 566.73 485.48 566.24C509.15 560.92 527.53 556.88 537.5 554.86C540.187 554.246 542.904 553.769 545.64 553.43L566.45 585.68L566.49 585.74Z" fill="#521515"/>
<path id="Vector_19" d="M161.449 254.765C188.463 254.765 210.362 232.866 210.362 205.851C210.362 178.837 188.463 156.938 161.449 156.938C134.435 156.938 112.536 178.837 112.536 205.851C112.536 232.866 134.435 254.765 161.449 254.765Z" fill="#521515"/>
<path id="Vector_20" d="M461.917 240.789C488.931 240.789 510.83 218.89 510.83 191.876C510.83 164.862 488.931 142.963 461.917 142.963C434.903 142.963 413.003 164.862 413.003 191.876C413.003 218.89 434.903 240.789 461.917 240.789Z" fill="#521515"/>
<path id="Vector_21" d="M409.51 170.913C409.511 158.849 413.971 147.212 422.032 138.236C430.094 129.261 441.188 123.581 453.182 122.289C446.351 121.543 439.44 122.245 432.898 124.348C426.357 126.451 420.332 129.909 415.216 134.497C410.1 139.084 406.008 144.698 403.207 150.973C400.405 157.247 398.958 164.042 398.958 170.913C398.958 177.785 400.405 184.579 403.207 190.854C406.008 197.128 410.1 202.742 415.216 207.33C420.332 211.917 426.357 215.375 432.898 217.479C439.44 219.582 446.351 220.284 453.182 219.537C441.188 218.245 430.094 212.566 422.032 203.59C413.971 194.615 409.511 182.977 409.51 170.913Z" fill="#521515"/>
<path id="Vector_22" d="M106.796 245.416C98.354 236.798 93.3949 225.364 92.8715 213.312C92.3481 201.259 96.2974 189.438 103.96 180.12C98.5591 184.368 94.1133 189.706 90.9129 195.787C87.7124 201.868 85.829 208.554 85.3855 215.411C84.9419 222.269 85.9481 229.142 88.3385 235.585C90.7289 242.027 94.4498 247.893 99.2589 252.801C104.068 257.709 109.857 261.549 116.249 264.071C122.642 266.592 129.493 267.738 136.358 267.434C143.223 267.131 149.947 265.384 156.091 262.308C162.236 259.233 167.664 254.897 172.021 249.583C162.549 257.055 150.65 260.762 138.61 259.993C126.571 259.224 115.24 254.032 106.796 245.416Z" fill="#521515"/>
<path id="Vector_23" d="M311.683 247.777C253.796 247.777 206.869 275.151 206.869 308.919C206.869 324.028 216.301 337.837 231.872 348.504L252.049 333.884L246.562 356.788C248.839 357.844 251.164 358.865 253.589 359.809L283.732 324.641V367.845C292.975 369.326 302.322 370.066 311.683 370.06C369.57 370.06 416.497 342.686 416.497 308.919C416.497 275.151 369.57 247.777 311.683 247.777Z" fill="#521515"/>
<path id="Vector_24" d="M413.003 191.876C413.003 191.876 405.407 226.814 452.878 240.79L413.003 191.876Z" fill="#521515"/>
<path id="Vector_25" d="M206.869 198.235C206.869 198.235 224.338 237.296 171.931 254.765L206.869 198.235Z" fill="#521515"/>
<path id="Vector_26" d="M232.775 421.754C237.183 420.52 238.355 410.945 235.394 400.367C232.433 389.79 226.459 382.215 222.052 383.449C217.644 384.683 216.472 394.258 219.433 404.836C222.394 415.413 228.368 422.988 232.775 421.754Z" fill="#FFEEEE"/>
<path id="Vector_27" d="M434.574 386.537C435.249 375.573 432.093 366.457 427.525 366.176C422.957 365.895 418.706 374.554 418.031 385.518C417.356 396.482 420.511 405.597 425.08 405.879C429.648 406.16 433.898 397.5 434.574 386.537Z" fill="#FFEEEE"/>
</g>
</g>
</g>
</g>
<defs>
<clipPath id="clip0">
<rect width="676" height="676" fill="white"/>
</clipPath>
</defs>
</svg>
